<svg id="visual" viewBox="0 0 900 600" width="900" height="600" xmlns="http://www.w3.org/2000/svg" xmlns:xlink="http://www.w3.org/1999/xlink" version="1.1"><path d="M0 121L18.8 117C37.7 113 75.3 105 112.8 95C150.3 85 187.7 73 225.2 76C262.7 79 300.3 97 337.8 108C375.3 119 412.7 123 450.2 124C487.7 125 525.3 123 562.8 113C600.3 103 637.7 85 675.2 79C712.7 73 750.3 79 787.8 82C825.3 85 862.7 85 881.3 85L900 85L900 0L881.3 0C862.7 0 825.3 0 787.8 0C750.3 0 712.7 0 675.2 0C637.7 0 600.3 0 562.8 0C525.3 0 487.7 0 450.2 0C412.7 0 375.3 0 337.8 0C300.3 0 262.7 0 225.2 0C187.7 0 150.3 0 112.8 0C75.3 0 37.7 0 18.8 0L0 0Z" fill="#6198ff"></path><path d="M0 343L18.8 335C37.7 327 75.3 311 112.8 301C150.3 291 187.7 287 225.2 275C262.7 263 300.3 243 337.8 254C375.3 265 412.7 307 450.2 305C487.7 303 525.3 257 562.8 248C600.3 239 637.7 267 675.2 263C712.7 259 750.3 223 787.8 208C825.3 193 862.7 199 881.3 202L900 205L900 83L881.3 83C862.7 83 825.3 83 787.8 80C750.3 77 712.7 71 675.2 77C637.7 83 600.3 101 562.8 111C525.3 121 487.7 123 450.2 122C412.7 121 375.3 117 337.8 106C300.3 95 262.7 77 225.2 74C187.7 71 150.3 83 112.8 93C75.3 103 37.7 111 18.8 115L0 119Z" fill="#3c80ff"></path><path d="M0 409L18.8 408C37.7 407 75.3 405 112.8 396C150.3 387 187.7 371 225.2 355C262.7 339 300.3 323 337.8 335C375.3 347 412.7 387 450.2 386C487.7 385 525.3 343 562.8 337C600.3 331 637.7 361 675.2 358C712.7 355 750.3 319 787.8 302C825.3 285 862.7 287 881.3 288L900 289L900 203L881.3 200C862.7 197 825.3 191 787.8 206C750.3 221 712.7 257 675.2 261C637.7 265 600.3 237 562.8 246C525.3 255 487.7 301 450.2 303C412.7 305 375.3 263 337.8 252C300.3 241 262.7 261 225.2 273C187.7 285 150.3 289 112.8 299C75.3 309 37.7 325 18.8 333L0 341Z" fill="#0066ff"></path><path d="M0 493L18.8 495C37.7 497 75.3 501 112.8 494C150.3 487 187.7 469 225.2 452C262.7 435 300.3 419 337.8 427C375.3 435 412.7 467 450.2 466C487.7 465 525.3 431 562.8 423C600.3 415 637.7 433 675.2 428C712.7 423 750.3 395 787.8 374C825.3 353 862.7 339 881.3 332L900 325L900 287L881.3 286C862.7 285 825.3 283 787.8 300C750.3 317 712.7 353 675.2 356C637.7 359 600.3 329 562.8 335C525.3 341 487.7 383 450.2 384C412.7 385 375.3 345 337.8 333C300.3 321 262.7 337 225.2 353C187.7 369 150.3 385 112.8 394C75.3 403 37.7 405 18.8 406L0 407Z" fill="#0059dd"></path><path d="M0 601L18.8 601C37.7 601 75.3 601 112.8 601C150.3 601 187.7 601 225.2 601C262.7 601 300.3 601 337.8 601C375.3 601 412.7 601 450.2 601C487.7 601 525.3 601 562.8 601C600.3 601 637.7 601 675.2 601C712.7 601 750.3 601 787.8 601C825.3 601 862.7 601 881.3 601L900 601L900 323L881.3 330C862.7 337 825.3 351 787.8 372C750.3 393 712.7 421 675.2 426C637.7 431 600.3 413 562.8 421C525.3 429 487.7 463 450.2 464C412.7 465 375.3 433 337.8 425C300.3 417 262.7 433 225.2 450C187.7 467 150.3 485 112.8 492C75.3 499 37.7 495 18.8 493L0 491Z" fill="#004cbb"></path></svg>