 <svg  version="1.0" xmlns="http://www.w3.org/2000/svg"  width="128.000000pt" height="128.000000pt" viewBox="0 0 128.000000 128.000000"  preserveAspectRatio="xMidYMid meet">  <g transform="translate(0.000000,128.000000) scale(0.100000,-0.100000)" fill="#ffffff" stroke="none"> <path d="M824 1076 c-65 -16 -130 -54 -219 -127 -98 -81 -166 -109 -260 -109 -86 0 -160 27 -231 85 -51 42 -89 46 -105 11 -16 -34 0 -57 77 -112 80 -57 162 -84 259 -84 132 0 197 31 382 179 22 17 64 40 96 51 114 40 228 18 338 -64 34 -25 65 -46 70 -46 5 0 18 9 30 21 38 38 1 87 -116 153 -96 54 -209 69 -321 42z m5 -59 c-69 -23 -93 -39 -214 -133 -65 -51 -165 -99 -188 -91 -6 2 16 13 49 25 36 13 88 45 134 83 112 91 199 138 260 138 14 0 -4 -9 -41 -22z m287 -17 c62 -32 110 -67 102 -75 -3 -3 -24 9 -48 26 -24 18 -66 42 -94 55 -28 12 -44 23 -35 23 9 1 42 -13 75 -29z m-1004 -125 c24 -19 71 -46 104 -60 32 -14 46 -23 29 -20 -44 9 -125 50 -165 84 -49 42 -23 39 32 -4z"/> <path d="M862 810 c-73 -11 -163 -57 -252 -131 -106 -87 -165 -112 -265 -112 -93 0 -160 25 -233 86 -52 43 -75 46 -98 12 -15 -23 -15 -27 0 -50 40 -61 170 -131 269 -145 135 -20 253 20 387 131 107 88 165 113 265 112 93 0 161 -25 233 -86 52 -44 75 -46 98 -11 16 24 16 27 -3 52 -28 38 -117 98 -177 120 -63 24 -153 32 -224 22z m-70 -80 c-34 -16 -98 -58 -142 -93 -87 -69 -149 -104 -201 -112 l-34 -6 37 14 c51 20 118 60 169 103 66 55 125 94 167 109 66 24 69 15 4 -15z m323 -2 c51 -25 108 -68 101 -75 -3 -3 -21 6 -41 21 -20 15 -64 41 -98 57 -38 18 -50 28 -32 24 17 -3 48 -15 70 -27z m-1010 -123 c34 -25 107 -64 145 -77 21 -7 19 -7 -9 -3 -47 7 -116 43 -159 83 -39 35 -27 34 23 -3z"/> <path d="M795 520 c-55 -18 -118 -60 -242 -159 -22 -17 -64 -40 -96 -51 -114 -40 -228 -18 -338 64 -34 25 -65 46 -70 46 -21 0 -50 -41 -44 -63 15 -49 152 -137 243 -156 156 -32 275 4 427 130 98 81 165 109 260 109 86 0 160 -27 231 -85 51 -42 89 -46 105 -11 8 17 8 29 0 44 -19 35 -138 113 -202 133 -79 25 -194 24 -274 -1z m26 -50 c-63 -23 -76 -31 -161 -100 -36 -28 -83 -62 -105 -76 -52 -30 -125 -56 -125 -44 0 6 7 10 15 10 27 0 110 47 171 97 106 88 186 132 239 132 11 0 -4 -8 -34 -19z m261 0 c57 -22 154 -88 144 -98 -4 -3 -21 5 -39 18 -17 13 -43 32 -57 42 -14 10 -50 27 -80 38 -30 10 -47 19 -38 20 10 0 41 -9 70 -20z m-992 -126 c17 -20 92 -64 138 -80 21 -7 29 -13 19 -14 -37 0 -187 80 -187 101 0 14 16 11 30 -7z"/> </g> </svg> 